<mxfile host="app.diagrams.net" agent="Mozilla/5.0 (X11; Linux x86_64; rv:130.0) Gecko/20100101 Firefox/130.0" version="24.7.17">
  <diagram id="R2lEEEUBdFMjLlhIrx00" name="Page-1">
    <mxGraphModel dx="1434" dy="822" grid="1" gridSize="10" guides="1" tooltips="1" connect="1" arrows="1" fold="1" page="1" pageScale="1" pageWidth="850" pageHeight="1100" math="0" shadow="0" extFonts="Permanent Marker^https://fonts.googleapis.com/css?family=Permanent+Marker">
      <root>
        <mxCell id="0" />
        <mxCell id="1" parent="0" />
        <mxCell id="XlEA709OXP0pRuiOG8Hz-8" style="edgeStyle=orthogonalEdgeStyle;rounded=0;orthogonalLoop=1;jettySize=auto;html=1;endArrow=none;endFill=0;" edge="1" parent="1" source="XlEA709OXP0pRuiOG8Hz-1">
          <mxGeometry relative="1" as="geometry">
            <mxPoint x="300" y="420" as="targetPoint" />
          </mxGeometry>
        </mxCell>
        <mxCell id="XlEA709OXP0pRuiOG8Hz-19" style="edgeStyle=orthogonalEdgeStyle;rounded=0;orthogonalLoop=1;jettySize=auto;html=1;entryX=0;entryY=0.75;entryDx=0;entryDy=0;" edge="1" parent="1" source="XlEA709OXP0pRuiOG8Hz-1" target="XlEA709OXP0pRuiOG8Hz-17">
          <mxGeometry relative="1" as="geometry" />
        </mxCell>
        <mxCell id="XlEA709OXP0pRuiOG8Hz-1" value="Podnik" style="swimlane;fontStyle=0;childLayout=stackLayout;horizontal=1;startSize=26;horizontalStack=0;resizeParent=1;resizeParentMax=0;resizeLast=0;collapsible=1;marginBottom=0;align=center;fontSize=14;" vertex="1" parent="1">
          <mxGeometry x="220" y="130" width="160" height="226" as="geometry" />
        </mxCell>
        <mxCell id="XlEA709OXP0pRuiOG8Hz-2" value="&lt;div&gt;+ &amp;lt;&amp;lt;ICO&amp;gt;&amp;gt;&lt;/div&gt;&lt;div&gt;&lt;br&gt;&lt;/div&gt;" style="text;strokeColor=none;fillColor=none;spacingLeft=4;spacingRight=4;overflow=hidden;rotatable=0;points=[[0,0.5],[1,0.5]];portConstraint=eastwest;fontSize=12;whiteSpace=wrap;html=1;" vertex="1" parent="XlEA709OXP0pRuiOG8Hz-1">
          <mxGeometry y="26" width="160" height="30" as="geometry" />
        </mxCell>
        <mxCell id="XlEA709OXP0pRuiOG8Hz-3" value="&lt;div&gt;+ nazev&lt;/div&gt;&lt;div&gt;&lt;br&gt;&lt;/div&gt;&lt;div&gt;+ cislo&lt;/div&gt;&lt;div&gt;&lt;br&gt;&lt;/div&gt;&lt;div&gt;+ sidliste&lt;/div&gt;&lt;div&gt;&lt;br&gt;&lt;/div&gt;&lt;div&gt;+ datum zalozeni&lt;br&gt;&lt;/div&gt;&lt;div&gt;&lt;br&gt;&lt;/div&gt;&lt;div&gt;&lt;br&gt;&lt;/div&gt;" style="text;strokeColor=none;fillColor=none;spacingLeft=4;spacingRight=4;overflow=hidden;rotatable=0;points=[[0,0.5],[1,0.5]];portConstraint=eastwest;fontSize=12;whiteSpace=wrap;html=1;" vertex="1" parent="XlEA709OXP0pRuiOG8Hz-1">
          <mxGeometry y="56" width="160" height="34" as="geometry" />
        </mxCell>
        <mxCell id="XlEA709OXP0pRuiOG8Hz-5" value="&lt;div&gt;+ cislo&lt;br&gt;&lt;/div&gt;&lt;div&gt;&lt;br&gt;&lt;/div&gt;&lt;div&gt;+ sidlo&lt;br&gt;&lt;/div&gt;&lt;div&gt;&lt;br&gt;&lt;/div&gt;&lt;div&gt;+ sidliste&lt;/div&gt;&lt;div&gt;&lt;br&gt;&lt;/div&gt;&lt;div&gt;+ datum zalozeni&lt;br&gt;&lt;/div&gt;&lt;div&gt;&lt;br&gt;&lt;/div&gt;&lt;div&gt;&lt;br&gt;&lt;/div&gt;" style="text;strokeColor=none;fillColor=none;spacingLeft=4;spacingRight=4;overflow=hidden;rotatable=0;points=[[0,0.5],[1,0.5]];portConstraint=eastwest;fontSize=12;whiteSpace=wrap;html=1;" vertex="1" parent="XlEA709OXP0pRuiOG8Hz-1">
          <mxGeometry y="90" width="160" height="34" as="geometry" />
        </mxCell>
        <mxCell id="XlEA709OXP0pRuiOG8Hz-6" value="+ sidlo&lt;br&gt;&lt;div&gt;&lt;br&gt;&lt;/div&gt;&lt;div&gt;+ datum zalozeni&lt;br&gt;&lt;/div&gt;&lt;div&gt;&lt;br&gt;&lt;/div&gt;&lt;div&gt;+ sidliste&lt;/div&gt;&lt;div&gt;&lt;br&gt;&lt;/div&gt;&lt;div&gt;+ datum zalozeni&lt;br&gt;&lt;/div&gt;&lt;div&gt;&lt;br&gt;&lt;/div&gt;&lt;div&gt;&lt;br&gt;&lt;/div&gt;" style="text;strokeColor=none;fillColor=none;spacingLeft=4;spacingRight=4;overflow=hidden;rotatable=0;points=[[0,0.5],[1,0.5]];portConstraint=eastwest;fontSize=12;whiteSpace=wrap;html=1;" vertex="1" parent="XlEA709OXP0pRuiOG8Hz-1">
          <mxGeometry y="124" width="160" height="34" as="geometry" />
        </mxCell>
        <mxCell id="XlEA709OXP0pRuiOG8Hz-7" value="+ datum zaloze" style="text;strokeColor=none;fillColor=none;spacingLeft=4;spacingRight=4;overflow=hidden;rotatable=0;points=[[0,0.5],[1,0.5]];portConstraint=eastwest;fontSize=12;whiteSpace=wrap;html=1;" vertex="1" parent="XlEA709OXP0pRuiOG8Hz-1">
          <mxGeometry y="158" width="160" height="34" as="geometry" />
        </mxCell>
        <mxCell id="XlEA709OXP0pRuiOG8Hz-11" value="+ typ" style="text;strokeColor=none;fillColor=none;spacingLeft=4;spacingRight=4;overflow=hidden;rotatable=0;points=[[0,0.5],[1,0.5]];portConstraint=eastwest;fontSize=12;whiteSpace=wrap;html=1;" vertex="1" parent="XlEA709OXP0pRuiOG8Hz-1">
          <mxGeometry y="192" width="160" height="34" as="geometry" />
        </mxCell>
        <mxCell id="XlEA709OXP0pRuiOG8Hz-9" value="&lt;div&gt;&amp;lt;&amp;lt;weak&amp;gt;&amp;gt;&lt;br&gt;&lt;/div&gt;&lt;div&gt;Report&lt;br&gt;&lt;/div&gt;" style="swimlane;childLayout=stackLayout;horizontal=1;startSize=50;horizontalStack=0;rounded=1;fontSize=14;fontStyle=0;strokeWidth=2;resizeParent=0;resizeLast=1;shadow=0;dashed=0;align=center;arcSize=4;whiteSpace=wrap;html=1;" vertex="1" parent="1">
          <mxGeometry x="220" y="420" width="160" height="120" as="geometry" />
        </mxCell>
        <mxCell id="XlEA709OXP0pRuiOG8Hz-10" value="&lt;br&gt;+mnozstvi : CO2,N2O,PFC&lt;br&gt;&lt;div&gt;+cim pokryvaji&lt;/div&gt;&lt;div&gt;+ datu zaniku&lt;br&gt;&lt;/div&gt;" style="align=left;strokeColor=none;fillColor=none;spacingLeft=4;fontSize=12;verticalAlign=top;resizable=0;rotatable=0;part=1;html=1;" vertex="1" parent="XlEA709OXP0pRuiOG8Hz-9">
          <mxGeometry y="50" width="160" height="70" as="geometry" />
        </mxCell>
        <mxCell id="XlEA709OXP0pRuiOG8Hz-12" value="vykazovat" style="text;html=1;align=center;verticalAlign=middle;whiteSpace=wrap;rounded=0;" vertex="1" parent="1">
          <mxGeometry x="300" y="370" width="60" height="30" as="geometry" />
        </mxCell>
        <mxCell id="XlEA709OXP0pRuiOG8Hz-16" style="edgeStyle=orthogonalEdgeStyle;rounded=0;orthogonalLoop=1;jettySize=auto;html=1;entryX=0.5;entryY=0;entryDx=0;entryDy=0;endArrow=none;endFill=0;" edge="1" parent="1" source="XlEA709OXP0pRuiOG8Hz-13" target="XlEA709OXP0pRuiOG8Hz-1">
          <mxGeometry relative="1" as="geometry" />
        </mxCell>
        <mxCell id="XlEA709OXP0pRuiOG8Hz-13" value="obchod" style="swimlane;childLayout=stackLayout;horizontal=1;startSize=50;horizontalStack=0;rounded=1;fontSize=14;fontStyle=0;strokeWidth=2;resizeParent=0;resizeLast=1;shadow=0;dashed=0;align=center;arcSize=4;whiteSpace=wrap;html=1;" vertex="1" parent="1">
          <mxGeometry x="20" y="100" width="160" height="120" as="geometry" />
        </mxCell>
        <mxCell id="XlEA709OXP0pRuiOG8Hz-14" value="+&amp;lt;&amp;lt;PC&amp;gt;&amp;gt;&lt;br&gt;+puvod EO&lt;br&gt;&lt;div&gt;+mnozstvi&lt;/div&gt;&lt;div&gt;+ prodejce&lt;/div&gt;&lt;div&gt;&lt;br&gt;&lt;/div&gt;" style="align=left;strokeColor=none;fillColor=none;spacingLeft=4;fontSize=12;verticalAlign=top;resizable=0;rotatable=0;part=1;html=1;" vertex="1" parent="XlEA709OXP0pRuiOG8Hz-13">
          <mxGeometry y="50" width="160" height="70" as="geometry" />
        </mxCell>
        <mxCell id="XlEA709OXP0pRuiOG8Hz-15" style="edgeStyle=orthogonalEdgeStyle;rounded=0;orthogonalLoop=1;jettySize=auto;html=1;entryX=0;entryY=0.5;entryDx=0;entryDy=0;endArrow=none;endFill=0;" edge="1" parent="1" source="XlEA709OXP0pRuiOG8Hz-14" target="XlEA709OXP0pRuiOG8Hz-11">
          <mxGeometry relative="1" as="geometry" />
        </mxCell>
        <mxCell id="XlEA709OXP0pRuiOG8Hz-17" value="nakup" style="swimlane;childLayout=stackLayout;horizontal=1;startSize=50;horizontalStack=0;rounded=1;fontSize=14;fontStyle=0;strokeWidth=2;resizeParent=0;resizeLast=1;shadow=0;dashed=0;align=center;arcSize=4;whiteSpace=wrap;html=1;" vertex="1" parent="1">
          <mxGeometry x="470" y="130" width="160" height="120" as="geometry" />
        </mxCell>
        <mxCell id="XlEA709OXP0pRuiOG8Hz-18" value="+&amp;lt;&amp;lt;UC&amp;gt;&amp;gt;&lt;br&gt;+ datum&lt;br&gt;&lt;div&gt;+ vyuzitelnost EO&lt;/div&gt;&lt;div&gt;+ cena za kus EO&lt;br&gt;&lt;/div&gt;" style="align=left;strokeColor=none;fillColor=none;spacingLeft=4;fontSize=12;verticalAlign=top;resizable=0;rotatable=0;part=1;html=1;" vertex="1" parent="XlEA709OXP0pRuiOG8Hz-17">
          <mxGeometry y="50" width="160" height="70" as="geometry" />
        </mxCell>
        <mxCell id="XlEA709OXP0pRuiOG8Hz-20" value="kupuje" style="text;html=1;align=center;verticalAlign=middle;whiteSpace=wrap;rounded=0;" vertex="1" parent="1">
          <mxGeometry x="395" y="190" width="60" height="30" as="geometry" />
        </mxCell>
        <mxCell id="XlEA709OXP0pRuiOG8Hz-22" value="Aukce" style="swimlane;childLayout=stackLayout;horizontal=1;startSize=50;horizontalStack=0;rounded=1;fontSize=14;fontStyle=0;strokeWidth=2;resizeParent=0;resizeLast=1;shadow=0;dashed=0;align=center;arcSize=4;whiteSpace=wrap;html=1;" vertex="1" parent="1">
          <mxGeometry x="650" y="300" width="160" height="150" as="geometry" />
        </mxCell>
        <mxCell id="XlEA709OXP0pRuiOG8Hz-23" value="+datum&lt;br&gt;&lt;div&gt;+cas zacatku &lt;br&gt;&lt;/div&gt;&lt;div&gt;+ cas konce&lt;br&gt;&lt;/div&gt;&lt;div&gt;+pocet EO&lt;/div&gt;&lt;div&gt;+ prodanych&lt;/div&gt;&lt;div&gt;+ kdo kollik koupil&lt;br&gt;&lt;/div&gt;" style="align=left;strokeColor=none;fillColor=none;spacingLeft=4;fontSize=12;verticalAlign=top;resizable=0;rotatable=0;part=1;html=1;" vertex="1" parent="XlEA709OXP0pRuiOG8Hz-22">
          <mxGeometry y="50" width="160" height="100" as="geometry" />
        </mxCell>
        <mxCell id="XlEA709OXP0pRuiOG8Hz-24" style="edgeStyle=orthogonalEdgeStyle;rounded=0;orthogonalLoop=1;jettySize=auto;html=1;entryX=0.55;entryY=-0.027;entryDx=0;entryDy=0;entryPerimeter=0;endArrow=none;endFill=0;" edge="1" parent="1" source="XlEA709OXP0pRuiOG8Hz-17" target="XlEA709OXP0pRuiOG8Hz-22">
          <mxGeometry relative="1" as="geometry" />
        </mxCell>
        <mxCell id="XlEA709OXP0pRuiOG8Hz-25" value="umoznuji" style="text;html=1;align=center;verticalAlign=middle;whiteSpace=wrap;rounded=0;" vertex="1" parent="1">
          <mxGeometry x="740" y="200" width="60" height="30" as="geometry" />
        </mxCell>
        <mxCell id="XlEA709OXP0pRuiOG8Hz-28" style="edgeStyle=orthogonalEdgeStyle;rounded=0;orthogonalLoop=1;jettySize=auto;html=1;endArrow=none;endFill=0;" edge="1" parent="1" source="XlEA709OXP0pRuiOG8Hz-26" target="XlEA709OXP0pRuiOG8Hz-23">
          <mxGeometry relative="1" as="geometry" />
        </mxCell>
        <mxCell id="XlEA709OXP0pRuiOG8Hz-26" value="Kralostvi" style="swimlane;childLayout=stackLayout;horizontal=1;startSize=50;horizontalStack=0;rounded=1;fontSize=14;fontStyle=0;strokeWidth=2;resizeParent=0;resizeLast=1;shadow=0;dashed=0;align=center;arcSize=4;whiteSpace=wrap;html=1;" vertex="1" parent="1">
          <mxGeometry x="640" y="510" width="160" height="120" as="geometry" />
        </mxCell>
        <mxCell id="XlEA709OXP0pRuiOG8Hz-27" value="+pocet kralostvi&lt;br&gt;+rozloha&lt;br&gt;+&amp;lt;&amp;lt;UC&amp;gt;&amp;gt;" style="align=left;strokeColor=none;fillColor=none;spacingLeft=4;fontSize=12;verticalAlign=top;resizable=0;rotatable=0;part=1;html=1;" vertex="1" parent="XlEA709OXP0pRuiOG8Hz-26">
          <mxGeometry y="50" width="160" height="70" as="geometry" />
        </mxCell>
        <mxCell id="XlEA709OXP0pRuiOG8Hz-29" value="poradaji" style="text;html=1;align=center;verticalAlign=middle;whiteSpace=wrap;rounded=0;" vertex="1" parent="1">
          <mxGeometry x="730" y="465" width="60" height="30" as="geometry" />
        </mxCell>
      </root>
    </mxGraphModel>
  </diagram>
</mxfile>
